%TF.GenerationSoftware,KiCad,Pcbnew,(5.1.10)-1*%
%TF.CreationDate,2021-06-21T00:32:37-07:00*%
%TF.ProjectId,tactileAGB,74616374-696c-4654-9147-422e6b696361,rev?*%
%TF.SameCoordinates,Original*%
%TF.FileFunction,Profile,NP*%
%FSLAX46Y46*%
G04 Gerber Fmt 4.6, Leading zero omitted, Abs format (unit mm)*
G04 Created by KiCad (PCBNEW (5.1.10)-1) date 2021-06-21 00:32:37*
%MOMM*%
%LPD*%
G01*
G04 APERTURE LIST*
%TA.AperFunction,Profile*%
%ADD10C,0.200000*%
%TD*%
G04 APERTURE END LIST*
D10*
X96674468Y-119017962D02*
G75*
G02*
X101574468Y-114117962I4900000J0D01*
G01*
X103100716Y-113190717D02*
X103168263Y-113095168D01*
X103029137Y-113283393D02*
X103100716Y-113190717D01*
X102953675Y-113372887D02*
X103029137Y-113283393D01*
X102874484Y-113458887D02*
X102953675Y-113372887D01*
X102791714Y-113541085D02*
X102874484Y-113458887D01*
X102705518Y-113619170D02*
X102791714Y-113541085D01*
X102616045Y-113692831D02*
X102705518Y-113619170D01*
X102523448Y-113761760D02*
X102616045Y-113692831D01*
X102427878Y-113825645D02*
X102523448Y-113761760D01*
X102228425Y-113937045D02*
X102329486Y-113884177D01*
X102329486Y-113884177D02*
X102427878Y-113825645D01*
X102018898Y-114024552D02*
X102124845Y-113983941D01*
X101910736Y-114058570D02*
X102018898Y-114024552D01*
X101688369Y-114105585D02*
X101800509Y-114085685D01*
X101574468Y-114117962D02*
X101688369Y-114105585D01*
X101800509Y-114085685D02*
X101910736Y-114058570D01*
X102124845Y-113983941D02*
X102228425Y-113937045D01*
X103168263Y-113095168D02*
X103231625Y-112997056D01*
X103290651Y-112896691D02*
X103345190Y-112794385D01*
X103345190Y-112794385D02*
X103395091Y-112690445D01*
X103480369Y-112478909D02*
X103515445Y-112371933D01*
X103231625Y-112997056D02*
X103290651Y-112896691D01*
X103395091Y-112690445D02*
X103440201Y-112585183D01*
X103440201Y-112585183D02*
X103480369Y-112478909D01*
X103515445Y-112371933D02*
X105978171Y-102522748D01*
X96670000Y-121161718D02*
X96674468Y-119017962D01*
X92842795Y-129354404D02*
G75*
G02*
X92487285Y-129505309I-355510J343312D01*
G01*
X74302156Y-124418813D02*
G75*
G02*
X74430584Y-124084248I500000J-1D01*
G01*
X95417602Y-126492448D02*
G75*
G02*
X95277408Y-126839636I-500000J0D01*
G01*
X76772541Y-121483242D02*
G75*
G02*
X77144113Y-121317807I371572J-334565D01*
G01*
X94917602Y-114330000D02*
G75*
G02*
X95417602Y-114830000I0J-500000D01*
G01*
X95417602Y-114830000D02*
X95417602Y-126492448D01*
X77144113Y-121317807D02*
X81447770Y-121310000D01*
X92487285Y-129505309D02*
X88501046Y-129505309D01*
X95277408Y-126839636D02*
X92842795Y-129354404D01*
X74310000Y-132454477D02*
X74302156Y-124418814D01*
X74430584Y-124084248D02*
X76772541Y-121483241D01*
X94462495Y-111723858D02*
X95337142Y-111239098D01*
X79554576Y-108167286D02*
X80183562Y-108944704D01*
X85086832Y-130919523D02*
G75*
G02*
X88501046Y-129505309I1414214J1414214D01*
G01*
X83298396Y-117134208D02*
G75*
G02*
X81447770Y-121310000I-1850626J-1677816D01*
G01*
X96670000Y-121161718D02*
G75*
G02*
X96670000Y-124759414I64388J-1798848D01*
G01*
X94462495Y-111723858D02*
G75*
G02*
X94230108Y-112422310I-437323J-242381D01*
G01*
X90603985Y-88067499D02*
G75*
G02*
X90073286Y-88651194I-492698J-85141D01*
G01*
X94230108Y-112422310D02*
G75*
G02*
X80137025Y-109679329I-5103101J11356635D01*
G01*
X91769835Y-83502498D02*
G75*
G02*
X92347674Y-83910055I85141J-492698D01*
G01*
X96052592Y-111412225D02*
G75*
G02*
X95337142Y-111239098I-278126J415508D01*
G01*
X80137026Y-109679327D02*
G75*
G02*
X80183562Y-108944704I361028J345915D01*
G01*
X93550102Y-89427331D02*
G75*
G02*
X93235031Y-89045088I177626J467384D01*
G01*
X100155148Y-106844507D02*
G75*
G02*
X96052591Y-111412225I-11028141J5778832D01*
G01*
X89871810Y-83830485D02*
X90603985Y-88067499D01*
X92347674Y-83910055D02*
X93235031Y-89045088D01*
X89871810Y-83830485D02*
X91769836Y-83502498D01*
X107064650Y-107983379D02*
X107136742Y-107911287D01*
X107478171Y-102522748D02*
X105978171Y-102522748D01*
X105085618Y-95819479D02*
X95282898Y-90243485D01*
X83299896Y-115324217D02*
X90280796Y-115324217D01*
X83299896Y-115324217D02*
X83299896Y-117132848D01*
X105085618Y-95819479D02*
X100155149Y-106844507D01*
X106820293Y-130800000D02*
G75*
G02*
X105820293Y-131800000I-1000000J0D01*
G01*
X106820293Y-108573309D02*
G75*
G02*
X107064650Y-107983379I834287J0D01*
G01*
X101570000Y-131800000D02*
G75*
G02*
X96670000Y-126900000I0J4900000D01*
G01*
X107478171Y-107087004D02*
G75*
G02*
X107136742Y-107911287I-1165712J0D01*
G01*
X93550102Y-89427332D02*
G75*
G02*
X95282898Y-90243485I-4423095J-11638343D01*
G01*
X83698324Y-132308030D02*
G75*
G02*
X83344771Y-132454477I-353553J353553D01*
G01*
X78826423Y-108059440D02*
G75*
G02*
X90073286Y-88651194I10300584J6993765D01*
G01*
X79554576Y-108167287D02*
G75*
G02*
X78826422Y-108059441I-314492J388709D01*
G01*
X90780796Y-114824217D02*
G75*
G02*
X90280796Y-115324217I-500000J0D01*
G01*
X90780796Y-114824217D02*
G75*
G02*
X91280796Y-114324217I500000J0D01*
G01*
X74310000Y-132454477D02*
X83344771Y-132454477D01*
X91280796Y-114324217D02*
X94917602Y-114330000D01*
X83698325Y-132308030D02*
X85086833Y-130919522D01*
X107478171Y-102522748D02*
X107478171Y-107087004D01*
X106820293Y-108573309D02*
X106820293Y-130800000D01*
X96670000Y-124759414D02*
X96670000Y-126900000D01*
X101570000Y-131800000D02*
X105820293Y-131800000D01*
M02*
