%TF.GenerationSoftware,KiCad,Pcbnew,(5.1.10)-1*%
%TF.CreationDate,2021-06-21T12:46:50-07:00*%
%TF.ProjectId,tactileAGB,74616374-696c-4654-9147-422e6b696361,1.0*%
%TF.SameCoordinates,Original*%
%TF.FileFunction,Legend,Top*%
%TF.FilePolarity,Positive*%
%FSLAX46Y46*%
G04 Gerber Fmt 4.6, Leading zero omitted, Abs format (unit mm)*
G04 Created by KiCad (PCBNEW (5.1.10)-1) date 2021-06-21 12:46:50*
%MOMM*%
%LPD*%
G01*
G04 APERTURE LIST*
%ADD10C,0.120000*%
%ADD11C,0.150000*%
%ADD12C,0.300000*%
%ADD13C,0.112500*%
G04 APERTURE END LIST*
D10*
%TO.C,A*%
X76990190Y-27272502D02*
X76990190Y-30572502D01*
X77190190Y-31422502D02*
X81790190Y-31422502D01*
X81990190Y-30572502D02*
X81990190Y-27272502D01*
X81790190Y-26422502D02*
X77190190Y-26422502D01*
%TO.C,B*%
X86425038Y-43505793D02*
X86425038Y-40205793D01*
X86225038Y-39355793D02*
X81625038Y-39355793D01*
X81425038Y-40205793D02*
X81425038Y-43505793D01*
X81625038Y-44355793D02*
X86225038Y-44355793D01*
%TO.C,\u2191*%
X70347007Y-62423175D02*
X70347007Y-65723175D01*
X70547007Y-66573175D02*
X75147007Y-66573175D01*
X75347007Y-65723175D02*
X75347007Y-62423175D01*
X75147007Y-61573175D02*
X70547007Y-61573175D01*
X66629507Y-53705675D02*
X63329507Y-53705675D01*
X62479507Y-53905675D02*
X62479507Y-58505675D01*
X63329507Y-58705675D02*
X66629507Y-58705675D01*
X67479507Y-58505675D02*
X67479507Y-53905675D01*
X79064507Y-58705675D02*
X82364507Y-58705675D01*
X83214507Y-58505675D02*
X83214507Y-53905675D01*
X82364507Y-53705675D02*
X79064507Y-53705675D01*
X78214507Y-53905675D02*
X78214507Y-58505675D01*
%TO.C,SELECT*%
X66480000Y-31870000D02*
X62580000Y-31870000D01*
X62580000Y-30820000D02*
X62580000Y-29120000D01*
X62580000Y-28070000D02*
X66480000Y-28070000D01*
X66480000Y-30820000D02*
X66480000Y-29120000D01*
%TO.C,START*%
X62580000Y-35948868D02*
X66480000Y-35948868D01*
X66480000Y-36998868D02*
X66480000Y-38698868D01*
X66480000Y-39748868D02*
X62580000Y-39748868D01*
X62580000Y-36998868D02*
X62580000Y-38698868D01*
%TO.C,\u2191*%
X75347007Y-49988175D02*
X75347007Y-46688175D01*
X75147007Y-45838175D02*
X70547007Y-45838175D01*
X70347007Y-46688175D02*
X70347007Y-49988175D01*
X70547007Y-50838175D02*
X75147007Y-50838175D01*
%TO.C,A*%
D11*
X79656856Y-33160597D02*
X79656856Y-32684406D01*
X79942570Y-33255835D02*
X78942570Y-32922502D01*
X79942570Y-32589168D01*
%TO.C,B*%
X83853609Y-37784364D02*
X83901228Y-37641507D01*
X83948847Y-37593888D01*
X84044085Y-37546269D01*
X84186942Y-37546269D01*
X84282180Y-37593888D01*
X84329799Y-37641507D01*
X84377418Y-37736745D01*
X84377418Y-38117697D01*
X83377418Y-38117697D01*
X83377418Y-37784364D01*
X83425038Y-37689126D01*
X83472657Y-37641507D01*
X83567895Y-37593888D01*
X83663133Y-37593888D01*
X83758371Y-37641507D01*
X83805990Y-37689126D01*
X83853609Y-37784364D01*
X83853609Y-38117697D01*
%TO.C,\u2191*%
D12*
X72847007Y-59168413D02*
X72847007Y-60692222D01*
X73227959Y-60311270D02*
X72847007Y-60692222D01*
X72466054Y-60311270D01*
X69884268Y-56205675D02*
X68360459Y-56205675D01*
X68741411Y-56586627D02*
X68360459Y-56205675D01*
X68741411Y-55824722D01*
X75809745Y-56205675D02*
X77333554Y-56205675D01*
X76952602Y-55824722D02*
X77333554Y-56205675D01*
X76952602Y-56586627D01*
%TO.C,SELECT*%
D11*
X67006190Y-26565238D02*
X66863333Y-26517619D01*
X66625238Y-26517619D01*
X66530000Y-26565238D01*
X66482380Y-26612857D01*
X66434761Y-26708095D01*
X66434761Y-26803333D01*
X66482380Y-26898571D01*
X66530000Y-26946190D01*
X66625238Y-26993809D01*
X66815714Y-27041428D01*
X66910952Y-27089047D01*
X66958571Y-27136666D01*
X67006190Y-27231904D01*
X67006190Y-27327142D01*
X66958571Y-27422380D01*
X66910952Y-27470000D01*
X66815714Y-27517619D01*
X66577619Y-27517619D01*
X66434761Y-27470000D01*
X66006190Y-27041428D02*
X65672857Y-27041428D01*
X65530000Y-26517619D02*
X66006190Y-26517619D01*
X66006190Y-27517619D01*
X65530000Y-27517619D01*
X64625238Y-26517619D02*
X65101428Y-26517619D01*
X65101428Y-27517619D01*
X64291904Y-27041428D02*
X63958571Y-27041428D01*
X63815714Y-26517619D02*
X64291904Y-26517619D01*
X64291904Y-27517619D01*
X63815714Y-27517619D01*
X62815714Y-26612857D02*
X62863333Y-26565238D01*
X63006190Y-26517619D01*
X63101428Y-26517619D01*
X63244285Y-26565238D01*
X63339523Y-26660476D01*
X63387142Y-26755714D01*
X63434761Y-26946190D01*
X63434761Y-27089047D01*
X63387142Y-27279523D01*
X63339523Y-27374761D01*
X63244285Y-27470000D01*
X63101428Y-27517619D01*
X63006190Y-27517619D01*
X62863333Y-27470000D01*
X62815714Y-27422380D01*
X62530000Y-27517619D02*
X61958571Y-27517619D01*
X62244285Y-26517619D02*
X62244285Y-27517619D01*
%TO.C,START*%
X66506190Y-40444106D02*
X66363333Y-40396487D01*
X66125238Y-40396487D01*
X66030000Y-40444106D01*
X65982380Y-40491725D01*
X65934761Y-40586963D01*
X65934761Y-40682201D01*
X65982380Y-40777439D01*
X66030000Y-40825058D01*
X66125238Y-40872677D01*
X66315714Y-40920296D01*
X66410952Y-40967915D01*
X66458571Y-41015534D01*
X66506190Y-41110772D01*
X66506190Y-41206010D01*
X66458571Y-41301248D01*
X66410952Y-41348868D01*
X66315714Y-41396487D01*
X66077619Y-41396487D01*
X65934761Y-41348868D01*
X65649047Y-41396487D02*
X65077619Y-41396487D01*
X65363333Y-40396487D02*
X65363333Y-41396487D01*
X64791904Y-40682201D02*
X64315714Y-40682201D01*
X64887142Y-40396487D02*
X64553809Y-41396487D01*
X64220476Y-40396487D01*
X63315714Y-40396487D02*
X63649047Y-40872677D01*
X63887142Y-40396487D02*
X63887142Y-41396487D01*
X63506190Y-41396487D01*
X63410952Y-41348868D01*
X63363333Y-41301248D01*
X63315714Y-41206010D01*
X63315714Y-41063153D01*
X63363333Y-40967915D01*
X63410952Y-40920296D01*
X63506190Y-40872677D01*
X63887142Y-40872677D01*
X63030000Y-41396487D02*
X62458571Y-41396487D01*
X62744285Y-40396487D02*
X62744285Y-41396487D01*
%TO.C,TP0*%
D13*
X72499285Y-34356428D02*
X72499285Y-33927857D01*
X73249285Y-34142142D02*
X72499285Y-34142142D01*
X73249285Y-33677857D02*
X72499285Y-33677857D01*
X72499285Y-33392142D01*
X72535000Y-33320714D01*
X72570714Y-33285000D01*
X72642142Y-33249285D01*
X72749285Y-33249285D01*
X72820714Y-33285000D01*
X72856428Y-33320714D01*
X72892142Y-33392142D01*
X72892142Y-33677857D01*
X72499285Y-32785000D02*
X72499285Y-32713571D01*
X72535000Y-32642142D01*
X72570714Y-32606428D01*
X72642142Y-32570714D01*
X72785000Y-32535000D01*
X72963571Y-32535000D01*
X73106428Y-32570714D01*
X73177857Y-32606428D01*
X73213571Y-32642142D01*
X73249285Y-32713571D01*
X73249285Y-32785000D01*
X73213571Y-32856428D01*
X73177857Y-32892142D01*
X73106428Y-32927857D01*
X72963571Y-32963571D01*
X72785000Y-32963571D01*
X72642142Y-32927857D01*
X72570714Y-32892142D01*
X72535000Y-32856428D01*
X72499285Y-32785000D01*
%TO.C,TP1*%
X73289285Y-36886428D02*
X73289285Y-36457857D01*
X74039285Y-36672142D02*
X73289285Y-36672142D01*
X74039285Y-36207857D02*
X73289285Y-36207857D01*
X73289285Y-35922142D01*
X73325000Y-35850714D01*
X73360714Y-35815000D01*
X73432142Y-35779285D01*
X73539285Y-35779285D01*
X73610714Y-35815000D01*
X73646428Y-35850714D01*
X73682142Y-35922142D01*
X73682142Y-36207857D01*
X74039285Y-35065000D02*
X74039285Y-35493571D01*
X74039285Y-35279285D02*
X73289285Y-35279285D01*
X73396428Y-35350714D01*
X73467857Y-35422142D01*
X73503571Y-35493571D01*
%TO.C,TP2*%
X61486428Y-43800714D02*
X61057857Y-43800714D01*
X61272142Y-43050714D02*
X61272142Y-43800714D01*
X60807857Y-43050714D02*
X60807857Y-43800714D01*
X60522142Y-43800714D01*
X60450714Y-43765000D01*
X60415000Y-43729285D01*
X60379285Y-43657857D01*
X60379285Y-43550714D01*
X60415000Y-43479285D01*
X60450714Y-43443571D01*
X60522142Y-43407857D01*
X60807857Y-43407857D01*
X60093571Y-43729285D02*
X60057857Y-43765000D01*
X59986428Y-43800714D01*
X59807857Y-43800714D01*
X59736428Y-43765000D01*
X59700714Y-43729285D01*
X59665000Y-43657857D01*
X59665000Y-43586428D01*
X59700714Y-43479285D01*
X60129285Y-43050714D01*
X59665000Y-43050714D01*
%TO.C,TP3*%
X59990714Y-51043571D02*
X59990714Y-51472142D01*
X59240714Y-51257857D02*
X59990714Y-51257857D01*
X59240714Y-51722142D02*
X59990714Y-51722142D01*
X59990714Y-52007857D01*
X59955000Y-52079285D01*
X59919285Y-52115000D01*
X59847857Y-52150714D01*
X59740714Y-52150714D01*
X59669285Y-52115000D01*
X59633571Y-52079285D01*
X59597857Y-52007857D01*
X59597857Y-51722142D01*
X59990714Y-52400714D02*
X59990714Y-52865000D01*
X59705000Y-52615000D01*
X59705000Y-52722142D01*
X59669285Y-52793571D01*
X59633571Y-52829285D01*
X59562142Y-52865000D01*
X59383571Y-52865000D01*
X59312142Y-52829285D01*
X59276428Y-52793571D01*
X59240714Y-52722142D01*
X59240714Y-52507857D01*
X59276428Y-52436428D01*
X59312142Y-52400714D01*
%TO.C,TP4*%
X84343571Y-54569285D02*
X84772142Y-54569285D01*
X84557857Y-55319285D02*
X84557857Y-54569285D01*
X85022142Y-55319285D02*
X85022142Y-54569285D01*
X85307857Y-54569285D01*
X85379285Y-54605000D01*
X85415000Y-54640714D01*
X85450714Y-54712142D01*
X85450714Y-54819285D01*
X85415000Y-54890714D01*
X85379285Y-54926428D01*
X85307857Y-54962142D01*
X85022142Y-54962142D01*
X86093571Y-54819285D02*
X86093571Y-55319285D01*
X85915000Y-54533571D02*
X85736428Y-55069285D01*
X86200714Y-55069285D01*
%TO.C,TP5*%
X63993571Y-48309285D02*
X64422142Y-48309285D01*
X64207857Y-49059285D02*
X64207857Y-48309285D01*
X64672142Y-49059285D02*
X64672142Y-48309285D01*
X64957857Y-48309285D01*
X65029285Y-48345000D01*
X65065000Y-48380714D01*
X65100714Y-48452142D01*
X65100714Y-48559285D01*
X65065000Y-48630714D01*
X65029285Y-48666428D01*
X64957857Y-48702142D01*
X64672142Y-48702142D01*
X65779285Y-48309285D02*
X65422142Y-48309285D01*
X65386428Y-48666428D01*
X65422142Y-48630714D01*
X65493571Y-48595000D01*
X65672142Y-48595000D01*
X65743571Y-48630714D01*
X65779285Y-48666428D01*
X65815000Y-48737857D01*
X65815000Y-48916428D01*
X65779285Y-48987857D01*
X65743571Y-49023571D01*
X65672142Y-49059285D01*
X65493571Y-49059285D01*
X65422142Y-49023571D01*
X65386428Y-48987857D01*
%TO.C,TP6*%
X85693571Y-50649285D02*
X86122142Y-50649285D01*
X85907857Y-51399285D02*
X85907857Y-50649285D01*
X86372142Y-51399285D02*
X86372142Y-50649285D01*
X86657857Y-50649285D01*
X86729285Y-50685000D01*
X86765000Y-50720714D01*
X86800714Y-50792142D01*
X86800714Y-50899285D01*
X86765000Y-50970714D01*
X86729285Y-51006428D01*
X86657857Y-51042142D01*
X86372142Y-51042142D01*
X87443571Y-50649285D02*
X87300714Y-50649285D01*
X87229285Y-50685000D01*
X87193571Y-50720714D01*
X87122142Y-50827857D01*
X87086428Y-50970714D01*
X87086428Y-51256428D01*
X87122142Y-51327857D01*
X87157857Y-51363571D01*
X87229285Y-51399285D01*
X87372142Y-51399285D01*
X87443571Y-51363571D01*
X87479285Y-51327857D01*
X87515000Y-51256428D01*
X87515000Y-51077857D01*
X87479285Y-51006428D01*
X87443571Y-50970714D01*
X87372142Y-50935000D01*
X87229285Y-50935000D01*
X87157857Y-50970714D01*
X87122142Y-51006428D01*
X87086428Y-51077857D01*
%TO.C,TP7*%
X78163571Y-64339285D02*
X78592142Y-64339285D01*
X78377857Y-65089285D02*
X78377857Y-64339285D01*
X78842142Y-65089285D02*
X78842142Y-64339285D01*
X79127857Y-64339285D01*
X79199285Y-64375000D01*
X79235000Y-64410714D01*
X79270714Y-64482142D01*
X79270714Y-64589285D01*
X79235000Y-64660714D01*
X79199285Y-64696428D01*
X79127857Y-64732142D01*
X78842142Y-64732142D01*
X79520714Y-64339285D02*
X80020714Y-64339285D01*
X79699285Y-65089285D01*
%TO.C,\u2191*%
D12*
X72847007Y-53242936D02*
X72847007Y-51719127D01*
X72466054Y-52100079D02*
X72847007Y-51719127D01*
X73227959Y-52100079D01*
%TD*%
M02*
