%TF.GenerationSoftware,KiCad,Pcbnew,(5.1.10)-1*%
%TF.CreationDate,2021-06-21T12:46:50-07:00*%
%TF.ProjectId,tactileAGB,74616374-696c-4654-9147-422e6b696361,1.0*%
%TF.SameCoordinates,Original*%
%TF.FileFunction,Profile,NP*%
%FSLAX46Y46*%
G04 Gerber Fmt 4.6, Leading zero omitted, Abs format (unit mm)*
G04 Created by KiCad (PCBNEW (5.1.10)-1) date 2021-06-21 12:46:50*
%MOMM*%
%LPD*%
G01*
G04 APERTURE LIST*
%TA.AperFunction,Profile*%
%ADD10C,0.200000*%
%TD*%
G04 APERTURE END LIST*
D10*
X69425532Y-37852038D02*
G75*
G02*
X64525532Y-42752038I-4900000J0D01*
G01*
X62999284Y-43679283D02*
X62931737Y-43774832D01*
X63070863Y-43586607D02*
X62999284Y-43679283D01*
X63146325Y-43497113D02*
X63070863Y-43586607D01*
X63225516Y-43411113D02*
X63146325Y-43497113D01*
X63308286Y-43328915D02*
X63225516Y-43411113D01*
X63394482Y-43250830D02*
X63308286Y-43328915D01*
X63483955Y-43177169D02*
X63394482Y-43250830D01*
X63576552Y-43108240D02*
X63483955Y-43177169D01*
X63672122Y-43044355D02*
X63576552Y-43108240D01*
X63871575Y-42932955D02*
X63770514Y-42985823D01*
X63770514Y-42985823D02*
X63672122Y-43044355D01*
X64081102Y-42845448D02*
X63975155Y-42886059D01*
X64189264Y-42811430D02*
X64081102Y-42845448D01*
X64411631Y-42764415D02*
X64299491Y-42784315D01*
X64525532Y-42752038D02*
X64411631Y-42764415D01*
X64299491Y-42784315D02*
X64189264Y-42811430D01*
X63975155Y-42886059D02*
X63871575Y-42932955D01*
X62931737Y-43774832D02*
X62868375Y-43872944D01*
X62809349Y-43973309D02*
X62754810Y-44075615D01*
X62754810Y-44075615D02*
X62704909Y-44179555D01*
X62619631Y-44391091D02*
X62584555Y-44498067D01*
X62868375Y-43872944D02*
X62809349Y-43973309D01*
X62704909Y-44179555D02*
X62659799Y-44284817D01*
X62659799Y-44284817D02*
X62619631Y-44391091D01*
X62584555Y-44498067D02*
X60121829Y-54347252D01*
X69430000Y-35708282D02*
X69425532Y-37852038D01*
X86184404Y-27637205D02*
G75*
G02*
X86335309Y-27992715I-343312J-355510D01*
G01*
X81248813Y-46177844D02*
G75*
G02*
X80914248Y-46049416I1J500000D01*
G01*
X83322448Y-25062398D02*
G75*
G02*
X83669636Y-25202592I0J-500000D01*
G01*
X78313242Y-43707459D02*
G75*
G02*
X78147807Y-43335887I334565J371572D01*
G01*
X71160000Y-25562398D02*
G75*
G02*
X71660000Y-25062398I500000J0D01*
G01*
X71660000Y-25062398D02*
X83322448Y-25062398D01*
X78147807Y-43335887D02*
X78140000Y-39032230D01*
X86335309Y-27992715D02*
X86335309Y-31978954D01*
X83669636Y-25202592D02*
X86184404Y-27637205D01*
X89284477Y-46170000D02*
X81248814Y-46177844D01*
X80914248Y-46049416D02*
X78313241Y-43707459D01*
X78182495Y-66863858D02*
X79057142Y-66379098D01*
X63274576Y-63307286D02*
X63903562Y-64084704D01*
X87749523Y-35393168D02*
G75*
G02*
X86335309Y-31978954I-1414214J1414214D01*
G01*
X73964208Y-37181604D02*
G75*
G02*
X78140000Y-39032230I1677816J-1850626D01*
G01*
X69430000Y-35708282D02*
G75*
G02*
X69430000Y-32110586I-64388J1798848D01*
G01*
X78182495Y-66863858D02*
G75*
G02*
X77950108Y-67562310I-437323J-242381D01*
G01*
X74323985Y-43207499D02*
G75*
G02*
X73793286Y-43791194I-492698J-85141D01*
G01*
X77950108Y-67562310D02*
G75*
G02*
X63857025Y-64819329I-5103101J11356635D01*
G01*
X75489835Y-38642498D02*
G75*
G02*
X76067674Y-39050055I85141J-492698D01*
G01*
X79772592Y-66552225D02*
G75*
G02*
X79057142Y-66379098I-278126J415508D01*
G01*
X63857026Y-64819327D02*
G75*
G02*
X63903562Y-64084704I361028J345915D01*
G01*
X77270102Y-44567331D02*
G75*
G02*
X76955031Y-44185088I177626J467384D01*
G01*
X83875148Y-61984507D02*
G75*
G02*
X79772591Y-66552225I-11028141J5778832D01*
G01*
X73591810Y-38970485D02*
X74323985Y-43207499D01*
X76067674Y-39050055D02*
X76955031Y-44185088D01*
X73591810Y-38970485D02*
X75489836Y-38642498D01*
X59035350Y-48886621D02*
X58963258Y-48958713D01*
X58621829Y-54347252D02*
X60121829Y-54347252D01*
X88805618Y-50959479D02*
X79002898Y-45383485D01*
X72154217Y-37180104D02*
X72154217Y-30199204D01*
X72154217Y-37180104D02*
X73962848Y-37180104D01*
X88805618Y-50959479D02*
X83875149Y-61984507D01*
X59279707Y-26070000D02*
G75*
G02*
X60279707Y-25070000I1000000J0D01*
G01*
X59279707Y-48296691D02*
G75*
G02*
X59035350Y-48886621I-834287J0D01*
G01*
X64530000Y-25070000D02*
G75*
G02*
X69430000Y-29970000I0J-4900000D01*
G01*
X58621829Y-49782996D02*
G75*
G02*
X58963258Y-48958713I1165712J0D01*
G01*
X77270102Y-44567332D02*
G75*
G02*
X79002898Y-45383485I-4423095J-11638343D01*
G01*
X89138030Y-36781676D02*
G75*
G02*
X89284477Y-37135229I-353553J-353553D01*
G01*
X62546423Y-63199440D02*
G75*
G02*
X73793286Y-43791194I10300584J6993765D01*
G01*
X63274576Y-63307287D02*
G75*
G02*
X62546422Y-63199441I-314492J388709D01*
G01*
X71654217Y-29699204D02*
G75*
G02*
X72154217Y-30199204I0J-500000D01*
G01*
X71654217Y-29699204D02*
G75*
G02*
X71154217Y-29199204I0J500000D01*
G01*
X89284477Y-46170000D02*
X89284477Y-37135229D01*
X71154217Y-29199204D02*
X71160000Y-25562398D01*
X89138030Y-36781675D02*
X87749522Y-35393167D01*
X58621829Y-54347252D02*
X58621829Y-49782996D01*
X59279707Y-48296691D02*
X59279707Y-26070000D01*
X69430000Y-32110586D02*
X69430000Y-29970000D01*
X64530000Y-25070000D02*
X60279707Y-25070000D01*
M02*
