%TF.GenerationSoftware,KiCad,Pcbnew,(5.1.10)-1*%
%TF.CreationDate,2021-07-07T23:01:47-07:00*%
%TF.ProjectId,tactileAGB,74616374-696c-4654-9147-422e6b696361,1.0*%
%TF.SameCoordinates,Original*%
%TF.FileFunction,Soldermask,Top*%
%TF.FilePolarity,Negative*%
%FSLAX46Y46*%
G04 Gerber Fmt 4.6, Leading zero omitted, Abs format (unit mm)*
G04 Created by KiCad (PCBNEW (5.1.10)-1) date 2021-07-07 23:01:47*
%MOMM*%
%LPD*%
G01*
G04 APERTURE LIST*
%ADD10R,1.500000X1.100000*%
%ADD11R,1.100000X1.500000*%
%ADD12R,2.000000X0.650000*%
%ADD13C,1.500000*%
G04 APERTURE END LIST*
D10*
%TO.C,A*%
X76240190Y-26422502D03*
X82740190Y-26422502D03*
X82740190Y-31422502D03*
X76240190Y-31422502D03*
%TD*%
%TO.C,B*%
X87175038Y-44355793D03*
X80675038Y-44355793D03*
X80675038Y-39355793D03*
X87175038Y-39355793D03*
%TD*%
%TO.C,\u2191*%
X69597007Y-61573175D03*
X76097007Y-61573175D03*
X76097007Y-66573175D03*
X69597007Y-66573175D03*
%TD*%
D11*
%TO.C,\u2191*%
X67479507Y-52955675D03*
X67479507Y-59455675D03*
X62479507Y-59455675D03*
X62479507Y-52955675D03*
%TD*%
%TO.C,\u2191*%
X78214507Y-59455675D03*
X78214507Y-52955675D03*
X83214507Y-52955675D03*
X83214507Y-59455675D03*
%TD*%
D10*
%TO.C,\u2191*%
X76097007Y-50838175D03*
X69597007Y-50838175D03*
X69597007Y-45838175D03*
X76097007Y-45838175D03*
%TD*%
D12*
%TO.C,SELECT1*%
X66780000Y-31345000D03*
X62280000Y-31345000D03*
X62280000Y-28595000D03*
X66780000Y-28595000D03*
%TD*%
%TO.C,START1*%
X62280000Y-36473868D03*
X66780000Y-36473868D03*
X66780000Y-39223868D03*
X62280000Y-39223868D03*
%TD*%
D13*
%TO.C,FR2*%
X89284477Y-46167948D03*
%TD*%
%TO.C,GND2PAD1*%
X67565612Y-33909434D03*
%TD*%
%TO.C,GND3PAD1*%
X71154217Y-27597353D03*
%TD*%
%TO.C,L-SHIELDING1*%
X73880003Y-39957789D03*
%TD*%
%TO.C,TP0*%
X72154217Y-35396088D03*
%TD*%
%TO.C,TP1*%
X72154217Y-37180104D03*
%TD*%
%TO.C,TP2*%
X60834864Y-45099328D03*
%TD*%
%TO.C,TP3*%
X59371829Y-54347252D03*
%TD*%
%TO.C,TP4*%
X86156117Y-53273742D03*
%TD*%
%TO.C,TP5*%
X64390003Y-50247789D03*
%TD*%
%TO.C,TP6*%
X88805618Y-50959479D03*
%TD*%
%TO.C,TP7*%
X78455694Y-66325349D03*
%TD*%
%TO.C,VDD-15*%
X63972506Y-63385768D03*
%TD*%
M02*
