%TF.GenerationSoftware,KiCad,Pcbnew,(5.1.10)-1*%
%TF.CreationDate,2021-07-07T23:01:47-07:00*%
%TF.ProjectId,tactileAGB,74616374-696c-4654-9147-422e6b696361,1.0*%
%TF.SameCoordinates,Original*%
%TF.FileFunction,Copper,L1,Top*%
%TF.FilePolarity,Positive*%
%FSLAX46Y46*%
G04 Gerber Fmt 4.6, Leading zero omitted, Abs format (unit mm)*
G04 Created by KiCad (PCBNEW (5.1.10)-1) date 2021-07-07 23:01:47*
%MOMM*%
%LPD*%
G01*
G04 APERTURE LIST*
%TA.AperFunction,SMDPad,CuDef*%
%ADD10R,1.500000X1.100000*%
%TD*%
%TA.AperFunction,SMDPad,CuDef*%
%ADD11R,1.100000X1.500000*%
%TD*%
%TA.AperFunction,SMDPad,CuDef*%
%ADD12R,2.000000X0.650000*%
%TD*%
%TA.AperFunction,ComponentPad*%
%ADD13C,1.500000*%
%TD*%
%TA.AperFunction,Conductor*%
%ADD14C,0.250000*%
%TD*%
%TA.AperFunction,Conductor*%
%ADD15C,0.200000*%
%TD*%
G04 APERTURE END LIST*
D10*
%TO.P,A,4*%
%TO.N,GND3*%
X76240190Y-26422502D03*
%TO.P,A,3*%
X82740190Y-26422502D03*
%TO.P,A,2*%
%TO.N,Net-(A1-Pad1)*%
X82740190Y-31422502D03*
%TO.P,A,1*%
X76240190Y-31422502D03*
%TD*%
%TO.P,B,4*%
%TO.N,GND3*%
X87175038Y-44355793D03*
%TO.P,B,3*%
X80675038Y-44355793D03*
%TO.P,B,2*%
%TO.N,Net-(B1-Pad1)*%
X80675038Y-39355793D03*
%TO.P,B,1*%
X87175038Y-39355793D03*
%TD*%
%TO.P,\u2191,4*%
%TO.N,GND1*%
X69597007Y-61573175D03*
%TO.P,\u2191,3*%
X76097007Y-61573175D03*
%TO.P,\u2191,2*%
%TO.N,Net-(DOWN1-Pad1)*%
X76097007Y-66573175D03*
%TO.P,\u2191,1*%
X69597007Y-66573175D03*
%TD*%
D11*
%TO.P,\u2191,4*%
%TO.N,GND1*%
X67479507Y-52955675D03*
%TO.P,\u2191,3*%
X67479507Y-59455675D03*
%TO.P,\u2191,2*%
%TO.N,Net-(LEFT1-Pad1)*%
X62479507Y-59455675D03*
%TO.P,\u2191,1*%
X62479507Y-52955675D03*
%TD*%
%TO.P,\u2191,4*%
%TO.N,GND1*%
X78214507Y-59455675D03*
%TO.P,\u2191,3*%
X78214507Y-52955675D03*
%TO.P,\u2191,2*%
%TO.N,Net-(RIGHT1-Pad1)*%
X83214507Y-52955675D03*
%TO.P,\u2191,1*%
X83214507Y-59455675D03*
%TD*%
D10*
%TO.P,\u2191,4*%
%TO.N,GND1*%
X76097007Y-50838175D03*
%TO.P,\u2191,3*%
X69597007Y-50838175D03*
%TO.P,\u2191,2*%
%TO.N,Net-(TP6-Pad1)*%
X69597007Y-45838175D03*
%TO.P,\u2191,1*%
X76097007Y-45838175D03*
%TD*%
D12*
%TO.P,SELECT1,4*%
%TO.N,GND2*%
X66780000Y-31345000D03*
%TO.P,SELECT1,3*%
X62280000Y-31345000D03*
%TO.P,SELECT1,2*%
%TO.N,Net-(SELECT1-Pad1)*%
X62280000Y-28595000D03*
%TO.P,SELECT1,1*%
X66780000Y-28595000D03*
%TD*%
%TO.P,START1,4*%
%TO.N,GND2*%
X62280000Y-36473868D03*
%TO.P,START1,3*%
X66780000Y-36473868D03*
%TO.P,START1,2*%
%TO.N,Net-(START1-Pad1)*%
X66780000Y-39223868D03*
%TO.P,START1,1*%
X62280000Y-39223868D03*
%TD*%
D13*
%TO.P,FR2,1*%
%TO.N,Net-(FR2-Pad1)*%
X89284477Y-46167948D03*
%TD*%
%TO.P,GND2PAD1,1*%
%TO.N,GND2*%
X67565612Y-33909434D03*
%TD*%
%TO.P,GND3PAD1,1*%
%TO.N,GND3*%
X71154217Y-27597353D03*
%TD*%
%TO.P,L-SHIELDING1,1*%
%TO.N,GND1*%
X73880003Y-39957789D03*
%TD*%
%TO.P,TP0,1*%
%TO.N,Net-(A1-Pad1)*%
X72154217Y-35396088D03*
%TD*%
%TO.P,TP1,1*%
%TO.N,Net-(B1-Pad1)*%
X72154217Y-37180104D03*
%TD*%
%TO.P,TP2,1*%
%TO.N,Net-(SELECT1-Pad1)*%
X60834864Y-45099328D03*
%TD*%
%TO.P,TP3,1*%
%TO.N,Net-(START1-Pad1)*%
X59371829Y-54347252D03*
%TD*%
%TO.P,TP4,1*%
%TO.N,Net-(RIGHT1-Pad1)*%
X86156117Y-53273742D03*
%TD*%
%TO.P,TP5,1*%
%TO.N,Net-(LEFT1-Pad1)*%
X64390003Y-50247789D03*
%TD*%
%TO.P,TP6,1*%
%TO.N,Net-(TP6-Pad1)*%
X88805618Y-50959479D03*
%TD*%
%TO.P,TP7,1*%
%TO.N,Net-(DOWN1-Pad1)*%
X78455694Y-66325349D03*
%TD*%
%TO.P,VDD-15,1*%
%TO.N,Net-(VDD-15-Pad1)*%
X63972506Y-63385768D03*
%TD*%
D14*
%TO.N,GND3*%
X81089500Y-44386500D02*
X86677500Y-44386500D01*
X88859467Y-42839533D02*
X87566500Y-44132500D01*
X88859467Y-37144489D02*
X88859467Y-42839533D01*
X88858779Y-37128732D02*
X88859467Y-37144489D01*
X88857929Y-37122279D02*
X88858779Y-37128732D01*
X88856519Y-37115919D02*
X88857929Y-37122279D01*
X88854564Y-37109717D02*
X88856519Y-37115919D01*
X88852076Y-37103711D02*
X88854564Y-37109717D01*
X88849069Y-37097935D02*
X88852076Y-37103711D01*
X88845575Y-37092450D02*
X88849069Y-37097935D01*
X88841613Y-37087287D02*
X88845575Y-37092450D01*
X88830932Y-37075631D02*
X88841613Y-37087287D01*
X87924598Y-36169297D02*
X88830932Y-37075631D01*
X87381807Y-36169297D02*
X87924598Y-36169297D01*
X87293602Y-36216950D02*
X87381807Y-36169297D01*
X87283052Y-36213801D02*
X87293602Y-36216950D01*
X87192810Y-36257471D02*
X87283052Y-36213801D01*
X87182413Y-36253856D02*
X87192810Y-36257471D01*
X87090316Y-36293456D02*
X87182413Y-36253856D01*
X87080088Y-36289379D02*
X87090316Y-36293456D01*
X86986311Y-36324833D02*
X87080088Y-36289379D01*
X86976275Y-36320304D02*
X86986311Y-36324833D01*
X86881012Y-36351538D02*
X86976275Y-36320304D01*
X86871190Y-36346567D02*
X86881012Y-36351538D01*
X86774630Y-36373520D02*
X86871190Y-36346567D01*
X86765040Y-36368116D02*
X86774630Y-36373520D01*
X86667371Y-36390735D02*
X86765040Y-36368116D01*
X86658030Y-36384907D02*
X86667371Y-36390735D01*
X86559449Y-36403147D02*
X86658030Y-36384907D01*
X86550377Y-36396908D02*
X86559449Y-36403147D01*
X86451082Y-36410732D02*
X86550377Y-36396908D01*
X86442300Y-36404096D02*
X86451082Y-36410732D01*
X86342486Y-36413477D02*
X86442300Y-36404096D01*
X86334007Y-36406455D02*
X86342486Y-36413477D01*
X83934494Y-33575171D02*
X83926895Y-33675137D01*
X83954898Y-33468472D02*
X83942847Y-33567998D01*
X83963562Y-33461680D02*
X83954898Y-33468472D01*
X83988997Y-33356394D02*
X83980039Y-33362793D01*
X84019106Y-33252343D02*
X84009869Y-33258338D01*
X84044334Y-33155314D02*
X84019106Y-33252343D01*
X84093090Y-33048788D02*
X84083357Y-33053934D01*
X84126865Y-32954395D02*
X84093090Y-33048788D01*
X84184917Y-32852641D02*
X84174766Y-32856899D01*
X84237308Y-32757831D02*
X84226970Y-32761634D01*
X84283382Y-32668788D02*
X84237308Y-32757831D01*
X84343865Y-32578560D02*
X84293870Y-32665453D01*
X84354494Y-32575695D02*
X84343865Y-32578560D01*
X84419068Y-32488727D02*
X84408318Y-32491115D01*
X84476613Y-32406631D02*
X84419068Y-32488727D01*
X84487455Y-32404725D02*
X84476613Y-32406631D01*
X85291078Y-36178166D02*
X85385169Y-36212783D01*
X84548601Y-32325282D02*
X84487455Y-32404725D01*
X84559523Y-32323861D02*
X84548601Y-32325282D01*
X84293870Y-32665453D02*
X84283382Y-32668788D01*
X85910299Y-28002179D02*
X85910299Y-31307110D01*
X85006884Y-36019111D02*
X85095509Y-36065975D01*
X85907428Y-27974528D02*
X85908785Y-27980509D01*
X85910113Y-36376069D02*
X86010008Y-36384560D01*
X84226970Y-32761634D02*
X84184917Y-32852641D01*
X84952430Y-31976206D02*
X84881603Y-32034862D01*
X85905541Y-27968681D02*
X85907428Y-27974528D01*
X85003641Y-36008590D02*
X85006884Y-36019111D01*
X83918870Y-33682676D02*
X83915739Y-33782881D01*
X85347826Y-31761381D02*
X85337222Y-31758421D01*
X85189845Y-36119205D02*
X85194013Y-36129396D01*
X85903145Y-27963037D02*
X85905541Y-27968681D01*
X84083357Y-33053934D02*
X84053827Y-33149739D01*
X84624158Y-32247220D02*
X84559523Y-32323861D01*
X84830331Y-35892587D02*
X84914424Y-35947162D01*
X83980039Y-33362793D02*
X83963562Y-33461680D01*
X85908785Y-27980509D02*
X85909603Y-27986589D01*
X85900259Y-27957636D02*
X85903145Y-27963037D01*
X85194013Y-36129396D02*
X85286461Y-36168173D01*
X83926895Y-33675137D02*
X83918870Y-33682676D01*
X85896898Y-27952504D02*
X85900259Y-27957636D01*
X86233875Y-36411374D02*
X86334007Y-36406455D01*
X85893092Y-27947691D02*
X85896898Y-27952504D01*
X84635126Y-32246288D02*
X84624158Y-32247220D01*
X84311965Y-26416000D02*
X85882144Y-27936131D01*
X85385169Y-36212783D02*
X85390229Y-36222563D01*
X84703111Y-32172611D02*
X84635126Y-32246288D01*
X85593963Y-36297867D02*
X85691832Y-36319615D01*
X72556218Y-26416000D02*
X84311965Y-26416000D01*
X85909603Y-27986589D02*
X85910299Y-28002179D01*
X84914424Y-35947162D02*
X84917194Y-35957818D01*
X84053827Y-33149739D02*
X84044334Y-33155314D01*
X71690000Y-27282218D02*
X72556218Y-26416000D01*
X85903015Y-36367652D02*
X85910113Y-36376069D01*
X85882144Y-27936131D02*
X85893092Y-27947691D01*
X85910299Y-31307110D02*
X85539111Y-31678298D01*
X84881603Y-32034862D02*
X84870605Y-32034322D01*
X85539111Y-31678298D02*
X85447734Y-31719536D01*
X83942847Y-33567998D02*
X83934494Y-33575171D01*
X85447734Y-31719536D02*
X85437275Y-31716107D01*
X84828039Y-35881819D02*
X84830331Y-35892587D01*
X84136816Y-32949689D02*
X84126865Y-32954395D01*
X84796324Y-32101646D02*
X84785315Y-32101597D01*
X85437275Y-31716107D02*
X85347826Y-31761381D01*
X85390229Y-36222563D02*
X85485764Y-36252945D01*
X85337222Y-31758421D02*
X84952741Y-31975093D01*
X86225716Y-36403979D02*
X86233875Y-36411374D01*
X84009869Y-33258338D02*
X83988997Y-33356394D01*
X84174766Y-32856899D02*
X84136816Y-32949689D01*
X84952741Y-31975093D02*
X84952430Y-31976206D01*
X84870605Y-32034322D02*
X84796324Y-32101646D01*
X84785315Y-32101597D02*
X84714110Y-32172170D01*
X86010008Y-36384560D02*
X86017475Y-36392652D01*
X84408318Y-32491115D02*
X84354494Y-32575695D01*
X84714110Y-32172170D02*
X84703111Y-32172611D01*
X83915739Y-33782881D02*
X83908060Y-33790768D01*
X83908060Y-33790768D02*
X83909402Y-33891010D01*
X83909402Y-33891010D02*
X83902082Y-33899232D01*
X83902082Y-33899232D02*
X83907894Y-33999319D01*
X83907894Y-33999319D02*
X83900947Y-34007861D01*
X83900947Y-34007861D02*
X83911218Y-34107584D01*
X83911218Y-34107584D02*
X83904662Y-34116424D01*
X83904662Y-34116424D02*
X83919371Y-34215597D01*
X83919371Y-34215597D02*
X83913213Y-34224725D01*
X83913213Y-34224725D02*
X83932331Y-34323134D01*
X83932331Y-34323134D02*
X83926589Y-34332524D01*
X83926589Y-34332524D02*
X83950079Y-34429989D01*
X83950079Y-34429989D02*
X83944758Y-34439632D01*
X83944758Y-34439632D02*
X83972572Y-34535947D01*
X83972572Y-34535947D02*
X83967690Y-34545811D01*
X83967690Y-34545811D02*
X83999773Y-34640791D01*
X83999773Y-34640791D02*
X83995334Y-34650866D01*
X83995334Y-34650866D02*
X84031623Y-34744322D01*
X84031623Y-34744322D02*
X84027637Y-34754587D01*
X84027637Y-34754587D02*
X84068059Y-34846330D01*
X84068059Y-34846330D02*
X84064536Y-34856760D01*
X84064536Y-34856760D02*
X84109009Y-34946606D01*
X84109009Y-34946606D02*
X84105955Y-34957181D01*
X84105955Y-34957181D02*
X84154393Y-35044959D01*
X84154393Y-35044959D02*
X84151814Y-35055662D01*
X84151814Y-35055662D02*
X84204118Y-35141188D01*
X84204118Y-35141188D02*
X84202019Y-35151997D01*
X84202019Y-35151997D02*
X84258088Y-35235105D01*
X84258088Y-35235105D02*
X84256473Y-35245993D01*
X84256473Y-35245993D02*
X84519371Y-35600474D01*
X84519371Y-35600474D02*
X84520515Y-35600644D01*
X84520515Y-35600644D02*
X84587540Y-35663608D01*
X84587540Y-35663608D02*
X84588374Y-35674589D01*
X84588374Y-35674589D02*
X84664430Y-35739899D01*
X84664430Y-35739899D02*
X84665753Y-35750827D01*
X84665753Y-35750827D02*
X84744651Y-35812684D01*
X84744651Y-35812684D02*
X84746460Y-35823544D01*
X84746460Y-35823544D02*
X84828039Y-35881819D01*
X84917194Y-35957818D02*
X85003641Y-36008590D01*
X85095509Y-36065975D02*
X85099218Y-36076341D01*
X85099218Y-36076341D02*
X85189845Y-36119205D01*
X85286461Y-36168173D02*
X85291078Y-36178166D01*
X85485764Y-36252945D02*
X85491254Y-36262487D01*
X85491254Y-36262487D02*
X85588052Y-36288579D01*
X85588052Y-36288579D02*
X85593963Y-36297867D01*
X85691832Y-36319615D02*
X85698151Y-36328631D01*
X85698151Y-36328631D02*
X85796889Y-36345991D01*
X85796889Y-36345991D02*
X85803603Y-36354714D01*
X85803603Y-36354714D02*
X85903015Y-36367652D01*
X86017475Y-36392652D02*
X86117645Y-36396677D01*
X86117645Y-36396677D02*
X86125463Y-36404426D01*
X86125463Y-36404426D02*
X86225716Y-36403979D01*
%TO.N,Net-(A1-Pad1)*%
X74739500Y-31432500D02*
X72579227Y-33592773D01*
X72579227Y-33592773D02*
X72579227Y-35129227D01*
X82359500Y-31432500D02*
X74739500Y-31432500D01*
%TO.N,Net-(B1-Pad1)*%
X74287509Y-36432770D02*
X74194850Y-36490533D01*
X74297078Y-36434989D02*
X74287509Y-36432770D01*
X74615865Y-36293337D02*
X74606627Y-36289993D01*
X73892737Y-36680232D02*
X73806788Y-36755094D01*
X74940480Y-36186226D02*
X74836792Y-36220445D01*
X75516659Y-36103717D02*
X75408254Y-36116773D01*
X75524387Y-36109783D02*
X75516659Y-36103717D01*
X75757024Y-36109679D02*
X75749804Y-36103018D01*
X75866214Y-36109622D02*
X75757024Y-36109679D01*
X75054220Y-36160578D02*
X74949254Y-36190646D01*
X75982265Y-36120847D02*
X75873162Y-36116562D01*
X75988935Y-36128062D02*
X75982265Y-36120847D01*
X76550826Y-36245479D02*
X76444722Y-36219721D01*
X75177283Y-36144576D02*
X75168886Y-36139472D01*
X76555937Y-36253867D02*
X76550826Y-36245479D01*
X76660933Y-36283824D02*
X76555937Y-36253867D01*
X86790038Y-39370000D02*
X78690001Y-39370000D01*
X76326467Y-36182063D02*
X76218653Y-36164820D01*
X78401295Y-38062198D02*
X78404825Y-38053033D01*
X76665708Y-36292411D02*
X76660933Y-36283824D01*
X75640704Y-36107417D02*
X75633225Y-36101049D01*
X77809756Y-37059204D02*
X77730259Y-36984352D01*
X74194850Y-36490533D02*
X74185201Y-36488696D01*
X75400291Y-36111019D02*
X75292492Y-36128376D01*
X78543837Y-38618248D02*
X78520139Y-38511663D01*
X77560895Y-36824865D02*
X77559433Y-36815149D01*
X76104160Y-36144158D02*
X76097783Y-36136683D01*
X78212735Y-37637247D02*
X78214769Y-37627633D01*
X74391958Y-36380958D02*
X74297078Y-36434989D01*
X76218653Y-36164820D02*
X76212581Y-36157102D01*
X78568427Y-39199783D02*
X78566255Y-39090619D01*
X73987655Y-36612526D02*
X73902536Y-36680907D01*
X74725604Y-36254693D02*
X74716507Y-36250985D01*
X77559433Y-36815149D02*
X77471588Y-36750295D01*
X74836792Y-36220445D02*
X74827850Y-36216378D01*
X76212581Y-36157102D02*
X76104160Y-36144158D01*
X78566255Y-39090619D02*
X78572773Y-39083273D01*
X76444722Y-36219721D02*
X76439281Y-36211542D01*
X78473910Y-38275713D02*
X78437689Y-38172702D01*
X78155223Y-37536111D02*
X78156873Y-37526428D01*
X74401432Y-36383556D02*
X74391958Y-36380958D01*
X74507752Y-36336313D02*
X74498390Y-36333340D01*
X78266179Y-37740586D02*
X78268593Y-37731065D01*
X77186895Y-36548703D02*
X77183912Y-36539343D01*
X76439281Y-36211542D02*
X76332231Y-36190022D01*
X78156873Y-37526428D02*
X78093734Y-37437346D01*
X78565397Y-39245396D02*
X78565321Y-39203016D01*
X75633225Y-36101049D02*
X75524387Y-36109783D01*
X76984624Y-36433777D02*
X76980905Y-36424681D01*
X75168886Y-36139472D02*
X75062809Y-36165342D01*
X78565321Y-39203016D02*
X78568427Y-39199783D01*
X78572773Y-39083273D02*
X78545854Y-38632627D01*
X74085199Y-36548644D02*
X73997421Y-36613590D01*
X78441583Y-38163680D02*
X78401295Y-38062198D01*
X76880223Y-36382437D02*
X76876149Y-36373503D01*
X78318263Y-37836553D02*
X78266179Y-37740586D01*
X76332231Y-36190022D02*
X76326467Y-36182063D01*
X78525078Y-38503171D02*
X78497159Y-38397611D01*
X78360533Y-37953231D02*
X78363697Y-37943931D01*
X78545854Y-38632627D02*
X78537180Y-38624931D01*
X78268593Y-37731065D02*
X78212735Y-37637247D01*
X78537180Y-38624931D02*
X78543837Y-38618248D01*
X75062809Y-36165342D02*
X75054220Y-36160578D01*
X78501757Y-38388929D02*
X78469663Y-38284568D01*
X78093734Y-37437346D02*
X78094998Y-37427604D01*
X75873162Y-36116562D02*
X75866214Y-36109622D01*
X78469663Y-38284568D02*
X78473910Y-38275713D01*
X78094998Y-37427604D02*
X77819499Y-37069961D01*
X78315472Y-37845971D02*
X78318263Y-37836553D01*
X77819499Y-37069961D02*
X77810042Y-37068734D01*
X77810042Y-37068734D02*
X77809756Y-37059204D01*
X75292492Y-36128376D02*
X75284310Y-36122946D01*
X78690001Y-39370000D02*
X78565397Y-39245396D01*
X77083552Y-36479996D02*
X76984624Y-36433777D01*
X73997421Y-36613590D02*
X73987655Y-36612526D01*
X74716507Y-36250985D02*
X74615865Y-36293337D01*
X77730259Y-36984352D02*
X77729573Y-36974550D01*
X74498390Y-36333340D02*
X74401432Y-36383556D01*
X74949254Y-36190646D02*
X74940480Y-36186226D01*
X77729573Y-36974550D02*
X77647163Y-36902922D01*
X73902536Y-36680907D02*
X73892737Y-36680232D01*
X77647163Y-36902922D02*
X77646089Y-36893160D01*
X77471588Y-36750295D02*
X77469741Y-36740646D01*
X78497159Y-38397611D02*
X78501757Y-38388929D01*
X77469741Y-36740646D02*
X77379390Y-36679340D01*
X78404825Y-38053033D02*
X78360533Y-37953231D01*
X77379390Y-36679340D02*
X77377161Y-36669774D01*
X76097783Y-36136683D02*
X75988935Y-36128062D01*
X78214769Y-37627633D02*
X78155223Y-37536111D01*
X78520139Y-38511663D02*
X78525078Y-38503171D01*
X77284442Y-36612107D02*
X77281833Y-36602635D01*
X74185201Y-36488696D02*
X74094915Y-36550096D01*
X75749804Y-36103018D02*
X75640704Y-36107417D01*
X77183912Y-36539343D02*
X77086904Y-36489229D01*
X74827850Y-36216378D02*
X74725604Y-36254693D01*
X77086904Y-36489229D02*
X77083552Y-36479996D01*
X74094915Y-36550096D02*
X74085199Y-36548644D01*
X76980905Y-36424681D02*
X76880223Y-36382437D01*
X75284310Y-36122946D02*
X75177283Y-36144576D01*
X78363697Y-37943931D02*
X78315472Y-37845971D01*
X77281833Y-36602635D02*
X77186895Y-36548703D01*
X76876149Y-36373503D02*
X76773863Y-36335293D01*
X73806788Y-36755094D02*
X72633548Y-36755094D01*
X77646089Y-36893160D02*
X77560895Y-36824865D01*
X76773863Y-36335293D02*
X76769433Y-36326522D01*
X72633548Y-36755094D02*
X72579227Y-36700773D01*
X74606627Y-36289993D02*
X74507752Y-36336313D01*
X75408254Y-36116773D02*
X75400291Y-36111019D01*
X78437689Y-38172702D02*
X78441583Y-38163680D01*
X77377161Y-36669774D02*
X77284442Y-36612107D01*
X76769433Y-36326522D02*
X76665708Y-36292411D01*
%TO.N,GND1*%
X67210000Y-52720000D02*
X67190000Y-52740000D01*
X76009500Y-50863500D02*
X76073000Y-50800000D01*
X69532500Y-50863500D02*
X76009500Y-50863500D01*
X67700000Y-49158000D02*
X69088000Y-50546000D01*
X67700000Y-45539864D02*
X67700000Y-49158000D01*
X68070235Y-45169629D02*
X67700000Y-45539864D01*
X68269167Y-45085637D02*
X68070235Y-45169629D01*
X68469367Y-45005311D02*
X68269167Y-45085637D01*
X68671086Y-44928550D02*
X68469367Y-45005311D01*
X74180181Y-44158751D02*
X74167013Y-44176652D01*
X74257358Y-44123506D02*
X74245866Y-44142533D01*
X74392697Y-44053566D02*
X74331020Y-44081396D01*
X74400557Y-44032781D02*
X74392697Y-44053566D01*
X74521022Y-43939521D02*
X74465390Y-43978047D01*
X74524995Y-43917654D02*
X74521022Y-43939521D01*
X74669756Y-43729866D02*
X74626560Y-43781943D01*
X74578863Y-43852105D02*
X74576891Y-43874246D01*
X74245866Y-44142533D02*
X74180181Y-44158751D01*
X74626606Y-43804164D02*
X74578863Y-43852105D01*
X74465390Y-43978047D02*
X74459445Y-43999473D01*
X74734988Y-43571056D02*
X74701919Y-43630087D01*
X74626560Y-43781943D02*
X74626606Y-43804164D01*
X74576891Y-43874246D02*
X74524995Y-43917654D01*
X74001638Y-44222788D02*
X73947219Y-44221120D01*
X74182014Y-39890000D02*
X74772763Y-43308600D01*
X74772763Y-43308600D02*
X74771940Y-43309766D01*
X74331020Y-44081396D02*
X74321301Y-44101392D01*
X74771940Y-43309766D02*
X74776582Y-43317380D01*
X74776582Y-43317380D02*
X74760635Y-43383130D01*
X74760635Y-43383130D02*
X74770432Y-43403076D01*
X74705984Y-43651940D02*
X74667692Y-43707728D01*
X74321301Y-44101392D02*
X74257358Y-44123506D01*
X74770432Y-43403076D02*
X74748581Y-43467115D01*
X74756530Y-43487876D02*
X74728957Y-43549663D01*
X74748581Y-43467115D02*
X74756530Y-43487876D01*
X74701919Y-43630087D02*
X74705984Y-43651940D01*
X74459445Y-43999473D02*
X74400557Y-44032781D01*
X74728957Y-43549663D02*
X74734988Y-43571056D01*
X74667692Y-43707728D02*
X74669756Y-43729866D01*
X74167013Y-44176652D02*
X74100122Y-44186842D01*
X74100122Y-44186842D02*
X74085376Y-44203482D01*
X74085376Y-44203482D02*
X74017832Y-44207558D01*
X74017832Y-44207558D02*
X74001638Y-44222788D01*
X73947219Y-44221120D02*
X73940433Y-44227051D01*
X73940433Y-44227051D02*
X73545627Y-44200519D01*
X73545627Y-44200519D02*
X73330114Y-44189917D01*
X73330114Y-44189917D02*
X73114338Y-44183181D01*
X73114338Y-44183181D02*
X72898613Y-44180319D01*
X72898613Y-44180319D02*
X72682819Y-44181329D01*
X72682819Y-44181329D02*
X72467048Y-44186212D01*
X72467048Y-44186212D02*
X72251403Y-44194967D01*
X72251403Y-44194967D02*
X72035937Y-44207590D01*
X72035937Y-44207590D02*
X71820791Y-44224074D01*
X71820791Y-44224074D02*
X71605913Y-44244422D01*
X71605913Y-44244422D02*
X71391506Y-44268615D01*
X71391506Y-44268615D02*
X71177494Y-44296662D01*
X71177494Y-44296662D02*
X70964037Y-44328542D01*
X70964037Y-44328542D02*
X70751178Y-44364249D01*
X70751178Y-44364249D02*
X70539043Y-44403761D01*
X70539043Y-44403761D02*
X70327645Y-44447074D01*
X70327645Y-44447074D02*
X70116985Y-44494191D01*
X70116985Y-44494191D02*
X69907242Y-44545072D01*
X69907242Y-44545072D02*
X69698449Y-44599709D01*
X69698449Y-44599709D02*
X69490714Y-44658071D01*
X69490714Y-44658071D02*
X69283982Y-44720174D01*
X69283982Y-44720174D02*
X69078492Y-44785947D01*
X69078492Y-44785947D02*
X68874179Y-44855409D01*
X68874179Y-44855409D02*
X68671086Y-44928550D01*
X78232000Y-52705000D02*
X76801500Y-51274500D01*
X78232000Y-59626500D02*
X78232000Y-52705000D01*
X76263500Y-61595000D02*
X78232000Y-59626500D01*
X69405500Y-61595000D02*
X76263500Y-61595000D01*
X67500500Y-59690000D02*
X69405500Y-61595000D01*
X67500500Y-52959000D02*
X67500500Y-59690000D01*
X67437000Y-52895500D02*
X67500500Y-52959000D01*
X67437000Y-52832000D02*
X67437000Y-52895500D01*
X69037332Y-51231668D02*
X67437000Y-52832000D01*
%TO.N,Net-(DOWN1-Pad1)*%
X76073000Y-66548000D02*
X76136500Y-66611500D01*
X70342182Y-66548000D02*
X76073000Y-66548000D01*
X77862000Y-66548000D02*
X78140000Y-66270000D01*
X76327000Y-66548000D02*
X77862000Y-66548000D01*
X76263500Y-66611500D02*
X76327000Y-66548000D01*
%TO.N,Net-(LEFT1-Pad1)*%
X62484000Y-59309000D02*
X62547500Y-59372500D01*
X62484000Y-53680168D02*
X62484000Y-59309000D01*
X64390003Y-50862497D02*
X62801500Y-52451000D01*
X64390003Y-50247789D02*
X64390003Y-50862497D01*
%TO.N,Net-(RIGHT1-Pad1)*%
X86156117Y-53273742D02*
X82933742Y-53273742D01*
X83185000Y-53215000D02*
X82914507Y-52944507D01*
X83185000Y-59435182D02*
X83185000Y-53215000D01*
%TO.N,GND2*%
X66780000Y-36473868D02*
X62423868Y-36473868D01*
X67130849Y-33864302D02*
X67160000Y-33618698D01*
X67160000Y-33618698D02*
X67160000Y-31340000D01*
X67141241Y-33877493D02*
X67130849Y-33864302D01*
X67136976Y-34057971D02*
X67141241Y-33877493D01*
X67135477Y-34060071D02*
X67136976Y-34057971D01*
X67190000Y-34386737D02*
X67135477Y-34060071D01*
X67160000Y-31340000D02*
X66690000Y-31340000D01*
X67190000Y-36473868D02*
X67190000Y-34386737D01*
X66780000Y-36473868D02*
X67190000Y-36473868D01*
X66780000Y-31345000D02*
X62415000Y-31345000D01*
%TO.N,Net-(SELECT1-Pad1)*%
X66780000Y-28595000D02*
X62095000Y-28595000D01*
X59704717Y-30315283D02*
X61510000Y-28510000D01*
X59704717Y-43969181D02*
X59704717Y-30315283D01*
X60834864Y-45099328D02*
X59704717Y-43969181D01*
D15*
%TO.N,Net-(START1-Pad1)*%
X66780000Y-39223868D02*
X62346132Y-39223868D01*
D14*
X62214942Y-39288926D02*
X62214942Y-44224185D01*
X62280000Y-39223868D02*
X62214942Y-39288926D01*
X62214942Y-44224185D02*
X59790006Y-53922242D01*
%TO.N,Net-(TP6-Pad1)*%
X69977000Y-45847000D02*
X76263500Y-45847000D01*
X85228266Y-51058266D02*
X88119691Y-51058266D01*
X81538266Y-51058266D02*
X85228266Y-51058266D01*
X76327000Y-45847000D02*
X81538266Y-51058266D01*
X76200000Y-45847000D02*
X76327000Y-45847000D01*
%TD*%
M02*
