%TF.GenerationSoftware,KiCad,Pcbnew,(5.1.10)-1*%
%TF.CreationDate,2021-06-21T00:32:37-07:00*%
%TF.ProjectId,tactileAGB,74616374-696c-4654-9147-422e6b696361,rev?*%
%TF.SameCoordinates,Original*%
%TF.FileFunction,Soldermask,Top*%
%TF.FilePolarity,Negative*%
%FSLAX46Y46*%
G04 Gerber Fmt 4.6, Leading zero omitted, Abs format (unit mm)*
G04 Created by KiCad (PCBNEW (5.1.10)-1) date 2021-06-21 00:32:37*
%MOMM*%
%LPD*%
G01*
G04 APERTURE LIST*
%ADD10R,0.700000X2.000000*%
%ADD11R,2.000000X0.700000*%
%ADD12C,1.500000*%
%ADD13R,2.000000X0.650000*%
G04 APERTURE END LIST*
D10*
%TO.C,A*%
X93757498Y-119160190D03*
X93757498Y-126160190D03*
X89357498Y-126160190D03*
X89357498Y-119160190D03*
%TD*%
%TO.C,B*%
X76424207Y-130595038D03*
X76424207Y-123595038D03*
X80824207Y-123595038D03*
X80824207Y-130595038D03*
%TD*%
D11*
%TO.C,DOWN*%
X85627007Y-106733175D03*
X92627007Y-106733175D03*
X92627007Y-111133175D03*
X85627007Y-111133175D03*
%TD*%
D12*
%TO.C,FR2*%
X74312052Y-132454477D03*
%TD*%
%TO.C,GND2PAD1*%
X98534388Y-122960566D03*
%TD*%
%TO.C,GND3PAD1*%
X92882647Y-114324217D03*
%TD*%
%TO.C,L-SHIELDING1*%
X90160003Y-84817789D03*
%TD*%
D10*
%TO.C,LEFT*%
X83459507Y-97565675D03*
X83459507Y-104565675D03*
X79059507Y-104565675D03*
X79059507Y-97565675D03*
%TD*%
%TO.C,RIGHT*%
X94794507Y-104565675D03*
X94794507Y-97565675D03*
X99194507Y-97565675D03*
X99194507Y-104565675D03*
%TD*%
D13*
%TO.C,SELECT*%
X99320000Y-125525000D03*
X103820000Y-125525000D03*
X103820000Y-128275000D03*
X99320000Y-128275000D03*
%TD*%
%TO.C,START*%
X103820000Y-120396132D03*
X99320000Y-120396132D03*
X99320000Y-117646132D03*
X103820000Y-117646132D03*
%TD*%
D12*
%TO.C,TP0*%
X85083912Y-115324217D03*
%TD*%
%TO.C,TP1*%
X83299896Y-115324217D03*
%TD*%
%TO.C,TP2*%
X105265136Y-111770672D03*
%TD*%
%TO.C,TP3*%
X106728171Y-102522748D03*
%TD*%
%TO.C,TP4*%
X102436117Y-98133742D03*
%TD*%
%TO.C,TP5*%
X80670003Y-95107789D03*
%TD*%
%TO.C,TP6*%
X105085618Y-95819479D03*
%TD*%
%TO.C,TP7*%
X94735694Y-111185349D03*
%TD*%
D11*
%TO.C,UP*%
X92627007Y-95398175D03*
X85627007Y-95398175D03*
X85627007Y-90998175D03*
X92627007Y-90998175D03*
%TD*%
D12*
%TO.C,VDD15*%
X80252506Y-108245768D03*
%TD*%
M02*
