%TF.GenerationSoftware,KiCad,Pcbnew,(5.1.10)-1*%
%TF.CreationDate,2021-06-21T09:30:25-07:00*%
%TF.ProjectId,tactileAGB,74616374-696c-4654-9147-422e6b696361,1.0*%
%TF.SameCoordinates,Original*%
%TF.FileFunction,Legend,Bot*%
%TF.FilePolarity,Positive*%
%FSLAX46Y46*%
G04 Gerber Fmt 4.6, Leading zero omitted, Abs format (unit mm)*
G04 Created by KiCad (PCBNEW (5.1.10)-1) date 2021-06-21 09:30:25*
%MOMM*%
%LPD*%
G01*
G04 APERTURE LIST*
%ADD10C,0.450000*%
G04 APERTURE END LIST*
D10*
X79791428Y-54347142D02*
X77791428Y-54347142D01*
X79791428Y-57347142D01*
X77791428Y-57347142D01*
X75505714Y-57204285D02*
X75791428Y-57347142D01*
X76362857Y-57347142D01*
X76648571Y-57204285D01*
X76791428Y-56918571D01*
X76791428Y-55775714D01*
X76648571Y-55490000D01*
X76362857Y-55347142D01*
X75791428Y-55347142D01*
X75505714Y-55490000D01*
X75362857Y-55775714D01*
X75362857Y-56061428D01*
X76791428Y-56347142D01*
X74077142Y-57347142D02*
X74077142Y-54347142D01*
X73791428Y-56204285D02*
X72934285Y-57347142D01*
X72934285Y-55347142D02*
X74077142Y-56490000D01*
X72077142Y-55347142D02*
X70934285Y-55347142D01*
X71648571Y-57347142D02*
X71648571Y-54775714D01*
X71505714Y-54490000D01*
X71220000Y-54347142D01*
X70934285Y-54347142D01*
X69505714Y-57347142D02*
X69791428Y-57204285D01*
X69934285Y-57061428D01*
X70077142Y-56775714D01*
X70077142Y-55918571D01*
X69934285Y-55632857D01*
X69791428Y-55490000D01*
X69505714Y-55347142D01*
X69077142Y-55347142D01*
X68791428Y-55490000D01*
X68648571Y-55632857D01*
X68505714Y-55918571D01*
X68505714Y-56775714D01*
X68648571Y-57061428D01*
X68791428Y-57204285D01*
X69077142Y-57347142D01*
X69505714Y-57347142D01*
X66791428Y-57347142D02*
X67077142Y-57204285D01*
X67220000Y-57061428D01*
X67362857Y-56775714D01*
X67362857Y-55918571D01*
X67220000Y-55632857D01*
X67077142Y-55490000D01*
X66791428Y-55347142D01*
X66362857Y-55347142D01*
X66077142Y-55490000D01*
X65934285Y-55632857D01*
X65791428Y-55918571D01*
X65791428Y-56775714D01*
X65934285Y-57061428D01*
X66077142Y-57204285D01*
X66362857Y-57347142D01*
X66791428Y-57347142D01*
X104021428Y-57987142D02*
X102021428Y-57987142D01*
X104021428Y-60987142D01*
X102021428Y-60987142D01*
X99735714Y-60844285D02*
X100021428Y-60987142D01*
X100592857Y-60987142D01*
X100878571Y-60844285D01*
X101021428Y-60558571D01*
X101021428Y-59415714D01*
X100878571Y-59130000D01*
X100592857Y-58987142D01*
X100021428Y-58987142D01*
X99735714Y-59130000D01*
X99592857Y-59415714D01*
X99592857Y-59701428D01*
X101021428Y-59987142D01*
X98307142Y-60987142D02*
X98307142Y-57987142D01*
X98021428Y-59844285D02*
X97164285Y-60987142D01*
X97164285Y-58987142D02*
X98307142Y-60130000D01*
X96307142Y-58987142D02*
X95164285Y-58987142D01*
X95878571Y-60987142D02*
X95878571Y-58415714D01*
X95735714Y-58130000D01*
X95450000Y-57987142D01*
X95164285Y-57987142D01*
X93735714Y-60987142D02*
X94021428Y-60844285D01*
X94164285Y-60701428D01*
X94307142Y-60415714D01*
X94307142Y-59558571D01*
X94164285Y-59272857D01*
X94021428Y-59130000D01*
X93735714Y-58987142D01*
X93307142Y-58987142D01*
X93021428Y-59130000D01*
X92878571Y-59272857D01*
X92735714Y-59558571D01*
X92735714Y-60415714D01*
X92878571Y-60701428D01*
X93021428Y-60844285D01*
X93307142Y-60987142D01*
X93735714Y-60987142D01*
X91021428Y-60987142D02*
X91307142Y-60844285D01*
X91450000Y-60701428D01*
X91592857Y-60415714D01*
X91592857Y-59558571D01*
X91450000Y-59272857D01*
X91307142Y-59130000D01*
X91021428Y-58987142D01*
X90592857Y-58987142D01*
X90307142Y-59130000D01*
X90164285Y-59272857D01*
X90021428Y-59558571D01*
X90021428Y-60415714D01*
X90164285Y-60701428D01*
X90307142Y-60844285D01*
X90592857Y-60987142D01*
X91021428Y-60987142D01*
M02*
