%TF.GenerationSoftware,KiCad,Pcbnew,(5.1.10)-1*%
%TF.CreationDate,2021-06-21T12:52:34-07:00*%
%TF.ProjectId,tactileAGB,74616374-696c-4654-9147-422e6b696361,1.0*%
%TF.SameCoordinates,Original*%
%TF.FileFunction,Legend,Top*%
%TF.FilePolarity,Positive*%
%FSLAX46Y46*%
G04 Gerber Fmt 4.6, Leading zero omitted, Abs format (unit mm)*
G04 Created by KiCad (PCBNEW (5.1.10)-1) date 2021-06-21 12:52:34*
%MOMM*%
%LPD*%
G01*
G04 APERTURE LIST*
%ADD10C,0.120000*%
%ADD11C,0.150000*%
%ADD12C,0.300000*%
%ADD13C,0.112500*%
G04 APERTURE END LIST*
D10*
%TO.C,A*%
X62932502Y-37849810D02*
X66232502Y-37849810D01*
X67082502Y-37649810D02*
X67082502Y-33049810D01*
X66232502Y-32849810D02*
X62932502Y-32849810D01*
X62082502Y-33049810D02*
X62082502Y-37649810D01*
%TO.C,B*%
X79165793Y-28414962D02*
X75865793Y-28414962D01*
X75015793Y-28614962D02*
X75015793Y-33214962D01*
X75865793Y-33414962D02*
X79165793Y-33414962D01*
X80015793Y-33214962D02*
X80015793Y-28614962D01*
%TO.C,\u2191*%
X70347007Y-62423175D02*
X70347007Y-65723175D01*
X70547007Y-66573175D02*
X75147007Y-66573175D01*
X75347007Y-65723175D02*
X75347007Y-62423175D01*
X75147007Y-61573175D02*
X70547007Y-61573175D01*
X66629507Y-53705675D02*
X63329507Y-53705675D01*
X62479507Y-53905675D02*
X62479507Y-58505675D01*
X63329507Y-58705675D02*
X66629507Y-58705675D01*
X67479507Y-58505675D02*
X67479507Y-53905675D01*
X79064507Y-58705675D02*
X82364507Y-58705675D01*
X83214507Y-58505675D02*
X83214507Y-53905675D01*
X82364507Y-53705675D02*
X79064507Y-53705675D01*
X78214507Y-53905675D02*
X78214507Y-58505675D01*
X75347007Y-49988175D02*
X75347007Y-46688175D01*
X75147007Y-45838175D02*
X70547007Y-45838175D01*
X70347007Y-46688175D02*
X70347007Y-49988175D01*
X70547007Y-50838175D02*
X75147007Y-50838175D01*
%TO.C,A*%
D11*
X68820597Y-35183143D02*
X68344406Y-35183143D01*
X68915835Y-34897429D02*
X68582502Y-35897429D01*
X68249168Y-34897429D01*
%TO.C,B*%
X73444364Y-30986390D02*
X73301507Y-30938771D01*
X73253888Y-30891152D01*
X73206269Y-30795914D01*
X73206269Y-30653057D01*
X73253888Y-30557819D01*
X73301507Y-30510200D01*
X73396745Y-30462581D01*
X73777697Y-30462581D01*
X73777697Y-31462581D01*
X73444364Y-31462581D01*
X73349126Y-31414962D01*
X73301507Y-31367342D01*
X73253888Y-31272104D01*
X73253888Y-31176866D01*
X73301507Y-31081628D01*
X73349126Y-31034009D01*
X73444364Y-30986390D01*
X73777697Y-30986390D01*
%TO.C,\u2191*%
D12*
X72847007Y-59168413D02*
X72847007Y-60692222D01*
X73227959Y-60311270D02*
X72847007Y-60692222D01*
X72466054Y-60311270D01*
X69884268Y-56205675D02*
X68360459Y-56205675D01*
X68741411Y-56586627D02*
X68360459Y-56205675D01*
X68741411Y-55824722D01*
X75809745Y-56205675D02*
X77333554Y-56205675D01*
X76952602Y-55824722D02*
X77333554Y-56205675D01*
X76952602Y-56586627D01*
%TO.C,TP0*%
D13*
X70016428Y-42340714D02*
X69587857Y-42340714D01*
X69802142Y-41590714D02*
X69802142Y-42340714D01*
X69337857Y-41590714D02*
X69337857Y-42340714D01*
X69052142Y-42340714D01*
X68980714Y-42305000D01*
X68945000Y-42269285D01*
X68909285Y-42197857D01*
X68909285Y-42090714D01*
X68945000Y-42019285D01*
X68980714Y-41983571D01*
X69052142Y-41947857D01*
X69337857Y-41947857D01*
X68445000Y-42340714D02*
X68373571Y-42340714D01*
X68302142Y-42305000D01*
X68266428Y-42269285D01*
X68230714Y-42197857D01*
X68195000Y-42055000D01*
X68195000Y-41876428D01*
X68230714Y-41733571D01*
X68266428Y-41662142D01*
X68302142Y-41626428D01*
X68373571Y-41590714D01*
X68445000Y-41590714D01*
X68516428Y-41626428D01*
X68552142Y-41662142D01*
X68587857Y-41733571D01*
X68623571Y-41876428D01*
X68623571Y-42055000D01*
X68587857Y-42197857D01*
X68552142Y-42269285D01*
X68516428Y-42305000D01*
X68445000Y-42340714D01*
%TO.C,TP1*%
X72546428Y-41550714D02*
X72117857Y-41550714D01*
X72332142Y-40800714D02*
X72332142Y-41550714D01*
X71867857Y-40800714D02*
X71867857Y-41550714D01*
X71582142Y-41550714D01*
X71510714Y-41515000D01*
X71475000Y-41479285D01*
X71439285Y-41407857D01*
X71439285Y-41300714D01*
X71475000Y-41229285D01*
X71510714Y-41193571D01*
X71582142Y-41157857D01*
X71867857Y-41157857D01*
X70725000Y-40800714D02*
X71153571Y-40800714D01*
X70939285Y-40800714D02*
X70939285Y-41550714D01*
X71010714Y-41443571D01*
X71082142Y-41372142D01*
X71153571Y-41336428D01*
%TO.C,TP4*%
X84343571Y-54569285D02*
X84772142Y-54569285D01*
X84557857Y-55319285D02*
X84557857Y-54569285D01*
X85022142Y-55319285D02*
X85022142Y-54569285D01*
X85307857Y-54569285D01*
X85379285Y-54605000D01*
X85415000Y-54640714D01*
X85450714Y-54712142D01*
X85450714Y-54819285D01*
X85415000Y-54890714D01*
X85379285Y-54926428D01*
X85307857Y-54962142D01*
X85022142Y-54962142D01*
X86093571Y-54819285D02*
X86093571Y-55319285D01*
X85915000Y-54533571D02*
X85736428Y-55069285D01*
X86200714Y-55069285D01*
%TO.C,TP5*%
X63993571Y-48309285D02*
X64422142Y-48309285D01*
X64207857Y-49059285D02*
X64207857Y-48309285D01*
X64672142Y-49059285D02*
X64672142Y-48309285D01*
X64957857Y-48309285D01*
X65029285Y-48345000D01*
X65065000Y-48380714D01*
X65100714Y-48452142D01*
X65100714Y-48559285D01*
X65065000Y-48630714D01*
X65029285Y-48666428D01*
X64957857Y-48702142D01*
X64672142Y-48702142D01*
X65779285Y-48309285D02*
X65422142Y-48309285D01*
X65386428Y-48666428D01*
X65422142Y-48630714D01*
X65493571Y-48595000D01*
X65672142Y-48595000D01*
X65743571Y-48630714D01*
X65779285Y-48666428D01*
X65815000Y-48737857D01*
X65815000Y-48916428D01*
X65779285Y-48987857D01*
X65743571Y-49023571D01*
X65672142Y-49059285D01*
X65493571Y-49059285D01*
X65422142Y-49023571D01*
X65386428Y-48987857D01*
%TO.C,TP6*%
X85693571Y-50649285D02*
X86122142Y-50649285D01*
X85907857Y-51399285D02*
X85907857Y-50649285D01*
X86372142Y-51399285D02*
X86372142Y-50649285D01*
X86657857Y-50649285D01*
X86729285Y-50685000D01*
X86765000Y-50720714D01*
X86800714Y-50792142D01*
X86800714Y-50899285D01*
X86765000Y-50970714D01*
X86729285Y-51006428D01*
X86657857Y-51042142D01*
X86372142Y-51042142D01*
X87443571Y-50649285D02*
X87300714Y-50649285D01*
X87229285Y-50685000D01*
X87193571Y-50720714D01*
X87122142Y-50827857D01*
X87086428Y-50970714D01*
X87086428Y-51256428D01*
X87122142Y-51327857D01*
X87157857Y-51363571D01*
X87229285Y-51399285D01*
X87372142Y-51399285D01*
X87443571Y-51363571D01*
X87479285Y-51327857D01*
X87515000Y-51256428D01*
X87515000Y-51077857D01*
X87479285Y-51006428D01*
X87443571Y-50970714D01*
X87372142Y-50935000D01*
X87229285Y-50935000D01*
X87157857Y-50970714D01*
X87122142Y-51006428D01*
X87086428Y-51077857D01*
%TO.C,TP7*%
X78163571Y-64339285D02*
X78592142Y-64339285D01*
X78377857Y-65089285D02*
X78377857Y-64339285D01*
X78842142Y-65089285D02*
X78842142Y-64339285D01*
X79127857Y-64339285D01*
X79199285Y-64375000D01*
X79235000Y-64410714D01*
X79270714Y-64482142D01*
X79270714Y-64589285D01*
X79235000Y-64660714D01*
X79199285Y-64696428D01*
X79127857Y-64732142D01*
X78842142Y-64732142D01*
X79520714Y-64339285D02*
X80020714Y-64339285D01*
X79699285Y-65089285D01*
%TO.C,\u2191*%
D12*
X72847007Y-53242936D02*
X72847007Y-51719127D01*
X72466054Y-52100079D02*
X72847007Y-51719127D01*
X73227959Y-52100079D01*
%TD*%
M02*
