%TF.GenerationSoftware,KiCad,Pcbnew,(5.1.10)-1*%
%TF.CreationDate,2021-06-21T09:30:25-07:00*%
%TF.ProjectId,tactileAGB,74616374-696c-4654-9147-422e6b696361,1.0*%
%TF.SameCoordinates,Original*%
%TF.FileFunction,Legend,Top*%
%TF.FilePolarity,Positive*%
%FSLAX46Y46*%
G04 Gerber Fmt 4.6, Leading zero omitted, Abs format (unit mm)*
G04 Created by KiCad (PCBNEW (5.1.10)-1) date 2021-06-21 09:30:25*
%MOMM*%
%LPD*%
G01*
G04 APERTURE LIST*
%ADD10C,0.120000*%
%ADD11C,0.150000*%
%ADD12C,0.112500*%
G04 APERTURE END LIST*
D10*
%TO.C,A*%
X105247498Y-60370190D02*
X105247498Y-55770190D01*
X101097498Y-60570190D02*
X104397498Y-60570190D01*
X100247498Y-55770190D02*
X100247498Y-60370190D01*
X104397498Y-55570190D02*
X101097498Y-55570190D01*
%TO.C,B*%
X87314207Y-60205038D02*
X87314207Y-64805038D01*
X91464207Y-60005038D02*
X88164207Y-60005038D01*
X92314207Y-64805038D02*
X92314207Y-60205038D01*
X88164207Y-65005038D02*
X91464207Y-65005038D01*
%TO.C,DOWN*%
X75147007Y-61573175D02*
X70547007Y-61573175D01*
X75347007Y-65723175D02*
X75347007Y-62423175D01*
X70547007Y-66573175D02*
X75147007Y-66573175D01*
X70347007Y-62423175D02*
X70347007Y-65723175D01*
%TO.C,LEFT*%
X67479507Y-58505675D02*
X67479507Y-53905675D01*
X63329507Y-58705675D02*
X66629507Y-58705675D01*
X62479507Y-53905675D02*
X62479507Y-58505675D01*
X66629507Y-53705675D02*
X63329507Y-53705675D01*
%TO.C,RIGHT*%
X78214507Y-53905675D02*
X78214507Y-58505675D01*
X82364507Y-53705675D02*
X79064507Y-53705675D01*
X83214507Y-58505675D02*
X83214507Y-53905675D01*
X79064507Y-58705675D02*
X82364507Y-58705675D01*
%TO.C,UP*%
X70547007Y-50838175D02*
X75147007Y-50838175D01*
X70347007Y-46688175D02*
X70347007Y-49988175D01*
X75147007Y-45838175D02*
X70547007Y-45838175D01*
X75347007Y-49988175D02*
X75347007Y-46688175D01*
%TO.C,A*%
D11*
X98509402Y-58236856D02*
X98985593Y-58236856D01*
X98414164Y-58522570D02*
X98747498Y-57522570D01*
X99080831Y-58522570D01*
%TO.C,B*%
X93885635Y-62433609D02*
X94028492Y-62481228D01*
X94076111Y-62528847D01*
X94123730Y-62624085D01*
X94123730Y-62766942D01*
X94076111Y-62862180D01*
X94028492Y-62909799D01*
X93933254Y-62957418D01*
X93552302Y-62957418D01*
X93552302Y-61957418D01*
X93885635Y-61957418D01*
X93980873Y-62005038D01*
X94028492Y-62052657D01*
X94076111Y-62147895D01*
X94076111Y-62243133D01*
X94028492Y-62338371D01*
X93980873Y-62385990D01*
X93885635Y-62433609D01*
X93552302Y-62433609D01*
%TO.C,DOWN*%
X70966054Y-60525555D02*
X70966054Y-59525555D01*
X71204149Y-59525555D01*
X71347007Y-59573175D01*
X71442245Y-59668413D01*
X71489864Y-59763651D01*
X71537483Y-59954127D01*
X71537483Y-60096984D01*
X71489864Y-60287460D01*
X71442245Y-60382698D01*
X71347007Y-60477936D01*
X71204149Y-60525555D01*
X70966054Y-60525555D01*
X72156530Y-59525555D02*
X72347007Y-59525555D01*
X72442245Y-59573175D01*
X72537483Y-59668413D01*
X72585102Y-59858889D01*
X72585102Y-60192222D01*
X72537483Y-60382698D01*
X72442245Y-60477936D01*
X72347007Y-60525555D01*
X72156530Y-60525555D01*
X72061292Y-60477936D01*
X71966054Y-60382698D01*
X71918435Y-60192222D01*
X71918435Y-59858889D01*
X71966054Y-59668413D01*
X72061292Y-59573175D01*
X72156530Y-59525555D01*
X72918435Y-59525555D02*
X73156530Y-60525555D01*
X73347007Y-59811270D01*
X73537483Y-60525555D01*
X73775578Y-59525555D01*
X74156530Y-60525555D02*
X74156530Y-59525555D01*
X74727959Y-60525555D01*
X74727959Y-59525555D01*
%TO.C,LEFT*%
X69431887Y-57158055D02*
X69431887Y-57634246D01*
X68431887Y-57634246D01*
X68908078Y-56824722D02*
X68908078Y-56491389D01*
X69431887Y-56348532D02*
X69431887Y-56824722D01*
X68431887Y-56824722D01*
X68431887Y-56348532D01*
X68908078Y-55586627D02*
X68908078Y-55919960D01*
X69431887Y-55919960D02*
X68431887Y-55919960D01*
X68431887Y-55443770D01*
X68431887Y-55205675D02*
X68431887Y-54634246D01*
X69431887Y-54919960D02*
X68431887Y-54919960D01*
%TO.C,RIGHT*%
X77166887Y-57539008D02*
X76690697Y-57872341D01*
X77166887Y-58110436D02*
X76166887Y-58110436D01*
X76166887Y-57729484D01*
X76214507Y-57634246D01*
X76262126Y-57586627D01*
X76357364Y-57539008D01*
X76500221Y-57539008D01*
X76595459Y-57586627D01*
X76643078Y-57634246D01*
X76690697Y-57729484D01*
X76690697Y-58110436D01*
X77166887Y-57110436D02*
X76166887Y-57110436D01*
X76214507Y-56110436D02*
X76166887Y-56205675D01*
X76166887Y-56348532D01*
X76214507Y-56491389D01*
X76309745Y-56586627D01*
X76404983Y-56634246D01*
X76595459Y-56681865D01*
X76738316Y-56681865D01*
X76928792Y-56634246D01*
X77024030Y-56586627D01*
X77119268Y-56491389D01*
X77166887Y-56348532D01*
X77166887Y-56253294D01*
X77119268Y-56110436D01*
X77071649Y-56062817D01*
X76738316Y-56062817D01*
X76738316Y-56253294D01*
X77166887Y-55634246D02*
X76166887Y-55634246D01*
X76643078Y-55634246D02*
X76643078Y-55062817D01*
X77166887Y-55062817D02*
X76166887Y-55062817D01*
X76166887Y-54729484D02*
X76166887Y-54158055D01*
X77166887Y-54443770D02*
X76166887Y-54443770D01*
%TO.C,TP0*%
D12*
X97313571Y-51079285D02*
X97742142Y-51079285D01*
X97527857Y-51829285D02*
X97527857Y-51079285D01*
X97992142Y-51829285D02*
X97992142Y-51079285D01*
X98277857Y-51079285D01*
X98349285Y-51115000D01*
X98385000Y-51150714D01*
X98420714Y-51222142D01*
X98420714Y-51329285D01*
X98385000Y-51400714D01*
X98349285Y-51436428D01*
X98277857Y-51472142D01*
X97992142Y-51472142D01*
X98885000Y-51079285D02*
X98956428Y-51079285D01*
X99027857Y-51115000D01*
X99063571Y-51150714D01*
X99099285Y-51222142D01*
X99135000Y-51365000D01*
X99135000Y-51543571D01*
X99099285Y-51686428D01*
X99063571Y-51757857D01*
X99027857Y-51793571D01*
X98956428Y-51829285D01*
X98885000Y-51829285D01*
X98813571Y-51793571D01*
X98777857Y-51757857D01*
X98742142Y-51686428D01*
X98706428Y-51543571D01*
X98706428Y-51365000D01*
X98742142Y-51222142D01*
X98777857Y-51150714D01*
X98813571Y-51115000D01*
X98885000Y-51079285D01*
%TO.C,TP1*%
X94783571Y-51869285D02*
X95212142Y-51869285D01*
X94997857Y-52619285D02*
X94997857Y-51869285D01*
X95462142Y-52619285D02*
X95462142Y-51869285D01*
X95747857Y-51869285D01*
X95819285Y-51905000D01*
X95855000Y-51940714D01*
X95890714Y-52012142D01*
X95890714Y-52119285D01*
X95855000Y-52190714D01*
X95819285Y-52226428D01*
X95747857Y-52262142D01*
X95462142Y-52262142D01*
X96605000Y-52619285D02*
X96176428Y-52619285D01*
X96390714Y-52619285D02*
X96390714Y-51869285D01*
X96319285Y-51976428D01*
X96247857Y-52047857D01*
X96176428Y-52083571D01*
%TO.C,TP4*%
X84343571Y-54569285D02*
X84772142Y-54569285D01*
X84557857Y-55319285D02*
X84557857Y-54569285D01*
X85022142Y-55319285D02*
X85022142Y-54569285D01*
X85307857Y-54569285D01*
X85379285Y-54605000D01*
X85415000Y-54640714D01*
X85450714Y-54712142D01*
X85450714Y-54819285D01*
X85415000Y-54890714D01*
X85379285Y-54926428D01*
X85307857Y-54962142D01*
X85022142Y-54962142D01*
X86093571Y-54819285D02*
X86093571Y-55319285D01*
X85915000Y-54533571D02*
X85736428Y-55069285D01*
X86200714Y-55069285D01*
%TO.C,TP5*%
X63993571Y-48309285D02*
X64422142Y-48309285D01*
X64207857Y-49059285D02*
X64207857Y-48309285D01*
X64672142Y-49059285D02*
X64672142Y-48309285D01*
X64957857Y-48309285D01*
X65029285Y-48345000D01*
X65065000Y-48380714D01*
X65100714Y-48452142D01*
X65100714Y-48559285D01*
X65065000Y-48630714D01*
X65029285Y-48666428D01*
X64957857Y-48702142D01*
X64672142Y-48702142D01*
X65779285Y-48309285D02*
X65422142Y-48309285D01*
X65386428Y-48666428D01*
X65422142Y-48630714D01*
X65493571Y-48595000D01*
X65672142Y-48595000D01*
X65743571Y-48630714D01*
X65779285Y-48666428D01*
X65815000Y-48737857D01*
X65815000Y-48916428D01*
X65779285Y-48987857D01*
X65743571Y-49023571D01*
X65672142Y-49059285D01*
X65493571Y-49059285D01*
X65422142Y-49023571D01*
X65386428Y-48987857D01*
%TO.C,TP6*%
X85693571Y-50649285D02*
X86122142Y-50649285D01*
X85907857Y-51399285D02*
X85907857Y-50649285D01*
X86372142Y-51399285D02*
X86372142Y-50649285D01*
X86657857Y-50649285D01*
X86729285Y-50685000D01*
X86765000Y-50720714D01*
X86800714Y-50792142D01*
X86800714Y-50899285D01*
X86765000Y-50970714D01*
X86729285Y-51006428D01*
X86657857Y-51042142D01*
X86372142Y-51042142D01*
X87443571Y-50649285D02*
X87300714Y-50649285D01*
X87229285Y-50685000D01*
X87193571Y-50720714D01*
X87122142Y-50827857D01*
X87086428Y-50970714D01*
X87086428Y-51256428D01*
X87122142Y-51327857D01*
X87157857Y-51363571D01*
X87229285Y-51399285D01*
X87372142Y-51399285D01*
X87443571Y-51363571D01*
X87479285Y-51327857D01*
X87515000Y-51256428D01*
X87515000Y-51077857D01*
X87479285Y-51006428D01*
X87443571Y-50970714D01*
X87372142Y-50935000D01*
X87229285Y-50935000D01*
X87157857Y-50970714D01*
X87122142Y-51006428D01*
X87086428Y-51077857D01*
%TO.C,TP7*%
X78163571Y-64339285D02*
X78592142Y-64339285D01*
X78377857Y-65089285D02*
X78377857Y-64339285D01*
X78842142Y-65089285D02*
X78842142Y-64339285D01*
X79127857Y-64339285D01*
X79199285Y-64375000D01*
X79235000Y-64410714D01*
X79270714Y-64482142D01*
X79270714Y-64589285D01*
X79235000Y-64660714D01*
X79199285Y-64696428D01*
X79127857Y-64732142D01*
X78842142Y-64732142D01*
X79520714Y-64339285D02*
X80020714Y-64339285D01*
X79699285Y-65089285D01*
%TO.C,UP*%
D11*
X72061292Y-51790555D02*
X72061292Y-52600079D01*
X72108911Y-52695317D01*
X72156530Y-52742936D01*
X72251768Y-52790555D01*
X72442245Y-52790555D01*
X72537483Y-52742936D01*
X72585102Y-52695317D01*
X72632721Y-52600079D01*
X72632721Y-51790555D01*
X73108911Y-52790555D02*
X73108911Y-51790555D01*
X73489864Y-51790555D01*
X73585102Y-51838175D01*
X73632721Y-51885794D01*
X73680340Y-51981032D01*
X73680340Y-52123889D01*
X73632721Y-52219127D01*
X73585102Y-52266746D01*
X73489864Y-52314365D01*
X73108911Y-52314365D01*
%TD*%
M02*
